<svg width="209" height="42" viewBox="0 0 209 42" fill="none" xmlns="http://www.w3.org/2000/svg">
<path d="M0.0500488 40.9999H3.80005L3.35005 7.4499H3.70005L6.55005 40.9999H9.70005L12.55 7.4499H12.85L12.45 40.9999H16.2001V0.999904H10.15L8.40005 22.9999H8.05005L6.30005 0.999904H0.0500488V40.9999Z" fill="#F9D0D2"/>
<path d="M18.4618 40.9999H22.0118L22.8618 24.0999H25.1618L26.0118 40.9999H29.6618L27.1118 0.999904H21.0118L18.4618 40.9999ZM23.0618 20.7499L23.8618 4.7499H24.2118L25.0118 20.7499H23.0618Z" fill="#F9D0D2"/>
<path d="M33.0145 40.9999H36.7645V4.5499H39.8645V0.999904H29.8645V4.5499H33.0145V40.9999Z" fill="#F9D0D2"/>
<path d="M44.9032 40.9999H48.6532V4.5499H51.7532V0.999904H41.7532V4.5499H44.9032V40.9999Z" fill="#F9D0D2"/>
<path d="M54.0989 40.9999H61.7989V37.4499H57.8489V20.6499H61.4489V17.0999H57.8489V4.5499H61.6989V0.999904H54.0989V40.9999Z" fill="#F9D0D2"/>
<path d="M71.4762 40.9999H75.5262L72.5262 15.8499C73.5262 14.7999 74.0262 13.1499 74.0262 10.7499V7.3999C74.0262 2.9499 72.6762 0.999904 68.8762 0.999904H64.3762V40.9999H68.1262V17.1499H68.7262H68.8762L71.4762 40.9999ZM68.1262 13.9499V4.5499H68.7762C69.8762 4.5499 70.2762 5.0499 70.2762 6.5999V11.9499C70.2762 13.4499 69.8762 13.9499 68.7762 13.9499H68.1262Z" fill="#F9D0D2"/>
<path d="M82.4286 41.3499C85.6786 41.3499 87.3286 39.3999 87.3286 34.6999V33.6499C87.3286 23.7999 81.3786 17.1499 81.3786 8.0999V6.0999C81.3786 4.7499 81.7786 4.1999 82.4786 4.1999C83.1786 4.1999 83.5786 4.7499 83.5786 6.0999V13.3999H87.3286V7.2999C87.3286 2.59991 85.9286 0.649902 82.5786 0.649902C79.2786 0.649902 77.6286 2.59991 77.6286 7.2999V8.3499C77.6286 18.1999 83.5786 24.8499 83.5786 33.8999V35.8999C83.5786 37.2499 83.1786 37.7999 82.4786 37.7999C81.7786 37.7999 81.3786 37.2499 81.3786 35.8999V28.5999H77.6286V34.6999C77.6286 39.3999 79.0286 41.3499 82.4286 41.3499Z" fill="#F9D0D2"/>
<path d="M99.9071 41.3499C103.207 41.3499 104.857 39.3999 104.857 34.6999V7.2999C104.857 2.59991 103.457 0.649902 100.057 0.649902C96.8071 0.649902 95.1571 2.59991 95.1571 7.2999V34.6999C95.1571 39.3999 96.5571 41.3499 99.9071 41.3499ZM98.9071 35.8999V6.0999C98.9071 4.7499 99.3071 4.1999 100.007 4.1999C100.657 4.1999 101.107 4.7499 101.107 6.0999V35.8999C101.107 37.2499 100.657 37.7999 100.007 37.7999C99.3071 37.7999 98.9071 37.2499 98.9071 35.8999Z" fill="#F9D0D2"/>
<path d="M107.878 40.9999H111.628V20.6499H115.128V17.0999H111.628V4.5499H115.328V0.999904H107.878V40.9999Z" fill="#F9D0D2"/>
<path d="M127.566 41.3499C130.816 41.3499 132.466 39.3999 132.466 34.6999V0.999904H128.716V35.8999C128.716 37.2499 128.316 37.7999 127.616 37.7999C126.966 37.7999 126.566 37.2499 126.566 35.8999V0.999904H122.816V34.6999C122.816 39.3999 124.166 41.3499 127.566 41.3499Z" fill="#F9D0D2"/>
<path d="M142.636 40.9999H146.686L143.686 15.8499C144.686 14.7999 145.186 13.1499 145.186 10.7499V7.3999C145.186 2.9499 143.836 0.999904 140.036 0.999904H135.536V40.9999H139.286V17.1499H139.886H140.036L142.636 40.9999ZM139.286 13.9499V4.5499H139.936C141.036 4.5499 141.436 5.0499 141.436 6.5999V11.9499C141.436 13.4499 141.036 13.9499 139.936 13.9499H139.286Z" fill="#F9D0D2"/>
<path d="M152.24 41.3499C153.99 41.3499 154.79 40.4999 155.19 38.1999H155.44V40.9999H158.49V20.5999H154.74V35.8999C154.74 37.2999 154.29 37.7999 153.59 37.7999C152.89 37.7999 152.54 37.2999 152.54 36.1499V6.1499C152.54 4.7499 152.94 4.1999 153.64 4.1999C154.29 4.1999 154.74 4.7499 154.74 6.1499V17.1999H158.49V7.2999C158.49 2.59991 157.09 0.649902 153.69 0.649902C150.44 0.649902 148.79 2.59991 148.79 7.2999V36.3999C148.79 40.0499 150.04 41.3499 152.24 41.3499Z" fill="#F9D0D2"/>
<path d="M161.511 40.9999H169.211V37.4499H165.261V20.6499H168.861V17.0999H165.261V4.5499H169.111V0.999904H161.511V40.9999Z" fill="#F9D0D2"/>
<path d="M171.788 40.9999H175.438L174.638 11.2999H174.988L178.488 40.9999H183.188V0.999904H179.538L180.288 30.6999H179.988L176.438 0.999904H171.788V40.9999Z" fill="#F9D0D2"/>
<path d="M190.915 41.3499C194.215 41.3499 195.865 39.3999 195.865 34.6999V20.5999H192.115V35.8999C192.115 37.2499 191.665 37.7999 191.015 37.7999C190.315 37.7999 189.915 37.2499 189.915 35.8999V6.0999C189.915 4.7499 190.315 4.1999 191.015 4.1999C191.665 4.1999 192.115 4.7499 192.115 6.0999V17.1999H195.865V7.2999C195.865 2.59991 194.465 0.649902 191.065 0.649902C187.815 0.649902 186.165 2.59991 186.165 7.2999V34.6999C186.165 39.3999 187.565 41.3499 190.915 41.3499Z" fill="#F9D0D2"/>
<path d="M201.348 26.6999V40.9999H205.098V26.6999L208.848 0.999904H205.198L203.448 17.1999H203.098L201.398 0.999904H197.548L201.348 26.6999Z" fill="#F9D0D2"/>
</svg>
